<mxfile host="app.diagrams.net" modified="2021-09-01T13:07:24.666Z" agent="5.0 (Windows NT 10.0; Win64; x64) AppleWebKit/537.36 (KHTML, like Gecko) Chrome/92.0.4515.159 Safari/537.36" etag="O2qLC48S3AXRixDq2o8A" version="15.0.4" type="github">
  <diagram id="kHqexBjPhEpHhAyhCyUR" name="Page-1">
    <mxGraphModel dx="1865" dy="617" grid="1" gridSize="10" guides="1" tooltips="1" connect="1" arrows="1" fold="1" page="1" pageScale="1" pageWidth="827" pageHeight="1169" math="0" shadow="0">
      <root>
        <mxCell id="0" />
        <mxCell id="1" parent="0" />
        <mxCell id="MG3up2Yn2TR1iBBidIfu-64" style="edgeStyle=orthogonalEdgeStyle;rounded=0;orthogonalLoop=1;jettySize=auto;html=1;entryX=0;entryY=0.5;entryDx=0;entryDy=0;startArrow=classic;startFill=1;" edge="1" parent="1" source="MG3up2Yn2TR1iBBidIfu-48" target="MG3up2Yn2TR1iBBidIfu-61">
          <mxGeometry relative="1" as="geometry" />
        </mxCell>
        <mxCell id="MG3up2Yn2TR1iBBidIfu-48" value="Universal Spatial Knowledge base" style="shape=cylinder3;whiteSpace=wrap;html=1;boundedLbl=1;backgroundOutline=1;size=15;verticalAlign=top;" vertex="1" parent="1">
          <mxGeometry x="216" y="620" width="344" height="210" as="geometry" />
        </mxCell>
        <mxCell id="MG3up2Yn2TR1iBBidIfu-13" value="" style="group" vertex="1" connectable="0" parent="1">
          <mxGeometry x="-20" y="40" width="270" height="190" as="geometry" />
        </mxCell>
        <mxCell id="MG3up2Yn2TR1iBBidIfu-8" value="&lt;font style=&quot;font-size: 16px&quot;&gt;Linked Open Data&lt;/font&gt;" style="ellipse;shape=cloud;whiteSpace=wrap;html=1;verticalAlign=top;" vertex="1" parent="MG3up2Yn2TR1iBBidIfu-13">
          <mxGeometry width="270" height="190" as="geometry" />
        </mxCell>
        <mxCell id="MG3up2Yn2TR1iBBidIfu-1" value="WIKIDATA" style="shape=cylinder3;whiteSpace=wrap;html=1;boundedLbl=1;backgroundOutline=1;size=15;" vertex="1" parent="MG3up2Yn2TR1iBBidIfu-13">
          <mxGeometry x="64.80000000000001" y="52.77777777777778" width="64.80000000000001" height="84.44444444444444" as="geometry" />
        </mxCell>
        <mxCell id="MG3up2Yn2TR1iBBidIfu-2" value="DBpedia" style="shape=cylinder3;whiteSpace=wrap;html=1;boundedLbl=1;backgroundOutline=1;size=15;" vertex="1" parent="MG3up2Yn2TR1iBBidIfu-13">
          <mxGeometry x="140.4" y="52.77777777777778" width="64.80000000000001" height="84.44444444444444" as="geometry" />
        </mxCell>
        <mxCell id="MG3up2Yn2TR1iBBidIfu-16" value="" style="group" vertex="1" connectable="0" parent="1">
          <mxGeometry x="520" y="20" width="280" height="280" as="geometry" />
        </mxCell>
        <mxCell id="MG3up2Yn2TR1iBBidIfu-12" value="Local data" style="whiteSpace=wrap;html=1;aspect=fixed;verticalAlign=top;" vertex="1" parent="MG3up2Yn2TR1iBBidIfu-16">
          <mxGeometry width="280" height="280" as="geometry" />
        </mxCell>
        <mxCell id="MG3up2Yn2TR1iBBidIfu-4" value="GeoJSON" style="shape=note;whiteSpace=wrap;html=1;backgroundOutline=1;darkOpacity=0.05;" vertex="1" parent="MG3up2Yn2TR1iBBidIfu-16">
          <mxGeometry x="140" y="30" width="80" height="100" as="geometry" />
        </mxCell>
        <mxCell id="MG3up2Yn2TR1iBBidIfu-5" value="Shapefile" style="shape=note;whiteSpace=wrap;html=1;backgroundOutline=1;darkOpacity=0.05;" vertex="1" parent="MG3up2Yn2TR1iBBidIfu-16">
          <mxGeometry x="40" y="30" width="80" height="100" as="geometry" />
        </mxCell>
        <mxCell id="MG3up2Yn2TR1iBBidIfu-6" value="GML" style="shape=note;whiteSpace=wrap;html=1;backgroundOutline=1;darkOpacity=0.05;" vertex="1" parent="MG3up2Yn2TR1iBBidIfu-16">
          <mxGeometry x="40" y="140" width="80" height="100" as="geometry" />
        </mxCell>
        <mxCell id="MG3up2Yn2TR1iBBidIfu-7" value="KML" style="shape=note;whiteSpace=wrap;html=1;backgroundOutline=1;darkOpacity=0.05;" vertex="1" parent="MG3up2Yn2TR1iBBidIfu-16">
          <mxGeometry x="150" y="140" width="80" height="100" as="geometry" />
        </mxCell>
        <mxCell id="MG3up2Yn2TR1iBBidIfu-17" style="edgeStyle=orthogonalEdgeStyle;rounded=0;orthogonalLoop=1;jettySize=auto;html=1;" edge="1" parent="1" source="MG3up2Yn2TR1iBBidIfu-1" target="MG3up2Yn2TR1iBBidIfu-34">
          <mxGeometry relative="1" as="geometry">
            <mxPoint x="90" y="320" as="targetPoint" />
            <Array as="points">
              <mxPoint x="77" y="280" />
              <mxPoint x="77" y="280" />
            </Array>
          </mxGeometry>
        </mxCell>
        <mxCell id="MG3up2Yn2TR1iBBidIfu-19" style="edgeStyle=orthogonalEdgeStyle;rounded=0;orthogonalLoop=1;jettySize=auto;html=1;" edge="1" parent="1">
          <mxGeometry relative="1" as="geometry">
            <mxPoint x="248" y="320" as="targetPoint" />
            <mxPoint x="528" y="100" as="sourcePoint" />
          </mxGeometry>
        </mxCell>
        <mxCell id="MG3up2Yn2TR1iBBidIfu-20" style="edgeStyle=orthogonalEdgeStyle;rounded=0;orthogonalLoop=1;jettySize=auto;html=1;" edge="1" parent="1" target="MG3up2Yn2TR1iBBidIfu-29">
          <mxGeometry relative="1" as="geometry">
            <mxPoint x="316" y="320" as="targetPoint" />
            <mxPoint x="696" y="150" as="sourcePoint" />
            <Array as="points">
              <mxPoint x="696" y="160" />
              <mxPoint x="327" y="160" />
            </Array>
          </mxGeometry>
        </mxCell>
        <mxCell id="MG3up2Yn2TR1iBBidIfu-21" style="edgeStyle=orthogonalEdgeStyle;rounded=0;orthogonalLoop=1;jettySize=auto;html=1;" edge="1" parent="1" target="MG3up2Yn2TR1iBBidIfu-30">
          <mxGeometry relative="1" as="geometry">
            <mxPoint x="357" y="320" as="targetPoint" />
            <mxPoint x="567" y="210" as="sourcePoint" />
          </mxGeometry>
        </mxCell>
        <mxCell id="MG3up2Yn2TR1iBBidIfu-22" style="edgeStyle=orthogonalEdgeStyle;rounded=0;orthogonalLoop=1;jettySize=auto;html=1;" edge="1" parent="1" target="MG3up2Yn2TR1iBBidIfu-31">
          <mxGeometry relative="1" as="geometry">
            <mxPoint x="401" y="320" as="targetPoint" />
            <mxPoint x="721" y="260" as="sourcePoint" />
            <Array as="points">
              <mxPoint x="721" y="280" />
              <mxPoint x="482" y="280" />
            </Array>
          </mxGeometry>
        </mxCell>
        <mxCell id="MG3up2Yn2TR1iBBidIfu-46" style="edgeStyle=orthogonalEdgeStyle;rounded=0;orthogonalLoop=1;jettySize=auto;html=1;" edge="1" parent="1" source="MG3up2Yn2TR1iBBidIfu-25" target="MG3up2Yn2TR1iBBidIfu-38">
          <mxGeometry relative="1" as="geometry">
            <Array as="points">
              <mxPoint x="581" y="410" />
              <mxPoint x="291" y="410" />
            </Array>
          </mxGeometry>
        </mxCell>
        <mxCell id="MG3up2Yn2TR1iBBidIfu-25" value="GEO-SPARQL" style="pointerEvents=1;shadow=0;dashed=0;html=1;strokeColor=none;fillColor=#505050;labelPosition=center;verticalLabelPosition=bottom;verticalAlign=top;outlineConnect=0;align=center;shape=mxgraph.office.concepts.book_journal;" vertex="1" parent="1">
          <mxGeometry x="560" y="390" width="41" height="49" as="geometry" />
        </mxCell>
        <mxCell id="MG3up2Yn2TR1iBBidIfu-42" style="edgeStyle=orthogonalEdgeStyle;rounded=0;orthogonalLoop=1;jettySize=auto;html=1;" edge="1" parent="1" source="MG3up2Yn2TR1iBBidIfu-26" target="MG3up2Yn2TR1iBBidIfu-38">
          <mxGeometry relative="1" as="geometry">
            <Array as="points">
              <mxPoint x="249" y="410" />
              <mxPoint x="291" y="410" />
            </Array>
          </mxGeometry>
        </mxCell>
        <mxCell id="MG3up2Yn2TR1iBBidIfu-26" value="Voc1" style="pointerEvents=1;shadow=0;dashed=0;html=1;strokeColor=none;fillColor=#505050;labelPosition=center;verticalLabelPosition=bottom;verticalAlign=top;outlineConnect=0;align=center;shape=mxgraph.office.concepts.book_journal;" vertex="1" parent="1">
          <mxGeometry x="228" y="320" width="41" height="49" as="geometry" />
        </mxCell>
        <mxCell id="MG3up2Yn2TR1iBBidIfu-43" style="edgeStyle=orthogonalEdgeStyle;rounded=0;orthogonalLoop=1;jettySize=auto;html=1;" edge="1" parent="1" source="MG3up2Yn2TR1iBBidIfu-29" target="MG3up2Yn2TR1iBBidIfu-38">
          <mxGeometry relative="1" as="geometry">
            <Array as="points">
              <mxPoint x="321" y="410" />
              <mxPoint x="291" y="410" />
            </Array>
          </mxGeometry>
        </mxCell>
        <mxCell id="MG3up2Yn2TR1iBBidIfu-29" value="Voc2" style="pointerEvents=1;shadow=0;dashed=0;html=1;strokeColor=none;fillColor=#505050;labelPosition=center;verticalLabelPosition=bottom;verticalAlign=top;outlineConnect=0;align=center;shape=mxgraph.office.concepts.book_journal;" vertex="1" parent="1">
          <mxGeometry x="300" y="320" width="41" height="49" as="geometry" />
        </mxCell>
        <mxCell id="MG3up2Yn2TR1iBBidIfu-44" style="edgeStyle=orthogonalEdgeStyle;rounded=0;orthogonalLoop=1;jettySize=auto;html=1;" edge="1" parent="1" source="MG3up2Yn2TR1iBBidIfu-30" target="MG3up2Yn2TR1iBBidIfu-38">
          <mxGeometry relative="1" as="geometry">
            <mxPoint x="384" y="430" as="sourcePoint" />
            <Array as="points">
              <mxPoint x="405" y="410" />
              <mxPoint x="291" y="410" />
            </Array>
          </mxGeometry>
        </mxCell>
        <mxCell id="MG3up2Yn2TR1iBBidIfu-30" value="Voc3" style="pointerEvents=1;shadow=0;dashed=0;html=1;strokeColor=none;fillColor=#505050;labelPosition=center;verticalLabelPosition=bottom;verticalAlign=top;outlineConnect=0;align=center;shape=mxgraph.office.concepts.book_journal;" vertex="1" parent="1">
          <mxGeometry x="384" y="320" width="41" height="49" as="geometry" />
        </mxCell>
        <mxCell id="MG3up2Yn2TR1iBBidIfu-45" style="edgeStyle=orthogonalEdgeStyle;rounded=0;orthogonalLoop=1;jettySize=auto;html=1;" edge="1" parent="1" source="MG3up2Yn2TR1iBBidIfu-31" target="MG3up2Yn2TR1iBBidIfu-38">
          <mxGeometry relative="1" as="geometry">
            <Array as="points">
              <mxPoint x="482" y="410" />
              <mxPoint x="291" y="410" />
            </Array>
          </mxGeometry>
        </mxCell>
        <mxCell id="MG3up2Yn2TR1iBBidIfu-31" value="Voc4" style="pointerEvents=1;shadow=0;dashed=0;html=1;strokeColor=none;fillColor=#505050;labelPosition=center;verticalLabelPosition=bottom;verticalAlign=top;outlineConnect=0;align=center;shape=mxgraph.office.concepts.book_journal;" vertex="1" parent="1">
          <mxGeometry x="461" y="320" width="41" height="49" as="geometry" />
        </mxCell>
        <mxCell id="MG3up2Yn2TR1iBBidIfu-40" style="edgeStyle=orthogonalEdgeStyle;rounded=0;orthogonalLoop=1;jettySize=auto;html=1;" edge="1" parent="1" source="MG3up2Yn2TR1iBBidIfu-34" target="MG3up2Yn2TR1iBBidIfu-38">
          <mxGeometry relative="1" as="geometry">
            <Array as="points">
              <mxPoint x="81" y="410" />
              <mxPoint x="291" y="410" />
            </Array>
          </mxGeometry>
        </mxCell>
        <mxCell id="MG3up2Yn2TR1iBBidIfu-34" value="Wikidata voc" style="pointerEvents=1;shadow=0;dashed=0;html=1;strokeColor=none;fillColor=#505050;labelPosition=center;verticalLabelPosition=bottom;verticalAlign=top;outlineConnect=0;align=center;shape=mxgraph.office.concepts.book_journal;" vertex="1" parent="1">
          <mxGeometry x="60" y="320" width="41" height="49" as="geometry" />
        </mxCell>
        <mxCell id="MG3up2Yn2TR1iBBidIfu-41" style="edgeStyle=orthogonalEdgeStyle;rounded=0;orthogonalLoop=1;jettySize=auto;html=1;" edge="1" parent="1" source="MG3up2Yn2TR1iBBidIfu-35" target="MG3up2Yn2TR1iBBidIfu-38">
          <mxGeometry relative="1" as="geometry">
            <Array as="points">
              <mxPoint x="161" y="410" />
              <mxPoint x="291" y="410" />
            </Array>
          </mxGeometry>
        </mxCell>
        <mxCell id="MG3up2Yn2TR1iBBidIfu-35" value="DBpedia Voc" style="pointerEvents=1;shadow=0;dashed=0;html=1;strokeColor=none;fillColor=#505050;labelPosition=center;verticalLabelPosition=bottom;verticalAlign=top;outlineConnect=0;align=center;shape=mxgraph.office.concepts.book_journal;" vertex="1" parent="1">
          <mxGeometry x="133" y="320" width="41" height="49" as="geometry" />
        </mxCell>
        <mxCell id="MG3up2Yn2TR1iBBidIfu-49" style="edgeStyle=orthogonalEdgeStyle;rounded=0;orthogonalLoop=1;jettySize=auto;html=1;dashed=1;fillColor=#f8cecc;strokeColor=#b85450;exitX=0.07;exitY=0.4;exitDx=0;exitDy=0;exitPerimeter=0;" edge="1" parent="1" source="MG3up2Yn2TR1iBBidIfu-8" target="MG3up2Yn2TR1iBBidIfu-48">
          <mxGeometry relative="1" as="geometry">
            <Array as="points">
              <mxPoint x="-1" y="640" />
            </Array>
          </mxGeometry>
        </mxCell>
        <mxCell id="MG3up2Yn2TR1iBBidIfu-53" value="Integration" style="edgeLabel;html=1;align=center;verticalAlign=middle;resizable=0;points=[];" vertex="1" connectable="0" parent="MG3up2Yn2TR1iBBidIfu-49">
          <mxGeometry x="-0.1966" y="-1" relative="1" as="geometry">
            <mxPoint x="2" y="40" as="offset" />
          </mxGeometry>
        </mxCell>
        <mxCell id="MG3up2Yn2TR1iBBidIfu-52" style="edgeStyle=orthogonalEdgeStyle;rounded=0;orthogonalLoop=1;jettySize=auto;html=1;dashed=1;fillColor=#f8cecc;strokeColor=#b85450;exitX=0.819;exitY=1.001;exitDx=0;exitDy=0;exitPerimeter=0;entryX=1;entryY=0.5;entryDx=0;entryDy=0;entryPerimeter=0;" edge="1" parent="1" source="MG3up2Yn2TR1iBBidIfu-12" target="MG3up2Yn2TR1iBBidIfu-48">
          <mxGeometry relative="1" as="geometry">
            <mxPoint x="160" y="170" as="sourcePoint" />
            <mxPoint x="281" y="610" as="targetPoint" />
            <Array as="points">
              <mxPoint x="740" y="300" />
              <mxPoint x="740" y="640" />
            </Array>
          </mxGeometry>
        </mxCell>
        <mxCell id="MG3up2Yn2TR1iBBidIfu-54" value="Integration" style="edgeLabel;html=1;align=center;verticalAlign=middle;resizable=0;points=[];" vertex="1" connectable="0" parent="MG3up2Yn2TR1iBBidIfu-52">
          <mxGeometry x="-0.5967" y="-4" relative="1" as="geometry">
            <mxPoint x="4" y="35" as="offset" />
          </mxGeometry>
        </mxCell>
        <mxCell id="MG3up2Yn2TR1iBBidIfu-38" value="Vocabulaire Universal&lt;br&gt;" style="pointerEvents=1;shadow=0;dashed=0;html=1;strokeColor=#b85450;fillColor=#f8cecc;labelPosition=center;verticalLabelPosition=bottom;verticalAlign=top;outlineConnect=0;align=center;shape=mxgraph.office.concepts.book_journal;" vertex="1" parent="1">
          <mxGeometry x="280" y="710" width="60" height="59" as="geometry" />
        </mxCell>
        <mxCell id="MG3up2Yn2TR1iBBidIfu-55" value="TBox" style="text;html=1;strokeColor=none;fillColor=none;align=center;verticalAlign=middle;whiteSpace=wrap;rounded=0;" vertex="1" parent="1">
          <mxGeometry x="290" y="729.5" width="40" height="20" as="geometry" />
        </mxCell>
        <mxCell id="MG3up2Yn2TR1iBBidIfu-56" value="Knowledge" style="shape=image;html=1;verticalAlign=top;verticalLabelPosition=bottom;labelBackgroundColor=#ffffff;imageAspect=0;aspect=fixed;image=https://cdn2.iconfinder.com/data/icons/picol-vector/32/rdf-128.png" vertex="1" parent="1">
          <mxGeometry x="422" y="699.5" width="80" height="80" as="geometry" />
        </mxCell>
        <mxCell id="MG3up2Yn2TR1iBBidIfu-57" value="&lt;span style=&quot;color: rgb(0 , 0 , 0) ; font-family: &amp;#34;helvetica&amp;#34; ; font-size: 12px ; font-style: normal ; font-weight: 400 ; letter-spacing: normal ; text-align: center ; text-indent: 0px ; text-transform: none ; word-spacing: 0px ; background-color: rgb(248 , 249 , 250) ; display: inline ; float: none&quot;&gt;ABox&lt;/span&gt;" style="text;whiteSpace=wrap;html=1;" vertex="1" parent="1">
          <mxGeometry x="452" y="724.5" width="50" height="30" as="geometry" />
        </mxCell>
        <mxCell id="MG3up2Yn2TR1iBBidIfu-58" value="Expresses" style="endArrow=none;dashed=1;html=1;dashPattern=1 3;strokeWidth=2;" edge="1" parent="1" source="MG3up2Yn2TR1iBBidIfu-38" target="MG3up2Yn2TR1iBBidIfu-56">
          <mxGeometry width="50" height="50" relative="1" as="geometry">
            <mxPoint x="350" y="710" as="sourcePoint" />
            <mxPoint x="400" y="660" as="targetPoint" />
          </mxGeometry>
        </mxCell>
        <mxCell id="MG3up2Yn2TR1iBBidIfu-60" style="edgeStyle=orthogonalEdgeStyle;rounded=0;orthogonalLoop=1;jettySize=auto;html=1;" edge="1" parent="1" source="MG3up2Yn2TR1iBBidIfu-2" target="MG3up2Yn2TR1iBBidIfu-35">
          <mxGeometry relative="1" as="geometry" />
        </mxCell>
        <mxCell id="MG3up2Yn2TR1iBBidIfu-61" value="SPARQL-end point" style="shape=umlState;rounded=1;verticalAlign=middle;align=center;absoluteArcSize=1;arcSize=10;umlStateConnection=connPointRefEntry;boundedLbl=1;" vertex="1" parent="1">
          <mxGeometry x="411.5" y="880" width="140" height="50" as="geometry" />
        </mxCell>
        <mxCell id="MG3up2Yn2TR1iBBidIfu-66" style="edgeStyle=orthogonalEdgeStyle;rounded=0;orthogonalLoop=1;jettySize=auto;html=1;startArrow=classic;startFill=1;" edge="1" parent="1" source="MG3up2Yn2TR1iBBidIfu-65" target="MG3up2Yn2TR1iBBidIfu-61">
          <mxGeometry relative="1" as="geometry" />
        </mxCell>
        <mxCell id="MG3up2Yn2TR1iBBidIfu-65" value="QGIS" style="aspect=fixed;pointerEvents=1;shadow=0;dashed=0;html=1;strokeColor=none;labelPosition=center;verticalLabelPosition=bottom;verticalAlign=top;align=center;fillColor=#00188D;shape=mxgraph.azure.computer" vertex="1" parent="1">
          <mxGeometry x="650" y="882.5" width="50" height="45" as="geometry" />
        </mxCell>
        <mxCell id="MG3up2Yn2TR1iBBidIfu-68" style="edgeStyle=orthogonalEdgeStyle;rounded=0;orthogonalLoop=1;jettySize=auto;html=1;startArrow=classic;startFill=1;" edge="1" parent="1" source="MG3up2Yn2TR1iBBidIfu-67">
          <mxGeometry relative="1" as="geometry">
            <mxPoint x="487" y="930" as="targetPoint" />
          </mxGeometry>
        </mxCell>
        <mxCell id="MG3up2Yn2TR1iBBidIfu-67" value="Web interface" style="aspect=fixed;pointerEvents=1;shadow=0;dashed=0;html=1;strokeColor=none;labelPosition=center;verticalLabelPosition=bottom;verticalAlign=top;align=center;fillColor=#00188D;shape=mxgraph.azure.computer" vertex="1" parent="1">
          <mxGeometry x="451.99999999999994" y="970" width="69.44" height="62.5" as="geometry" />
        </mxCell>
      </root>
    </mxGraphModel>
  </diagram>
</mxfile>
